# AST/ASF file generated using VICON BodyLanguage
# -----------------------------------------------
:version 1.10
:name VICON
:units
  mass 1.0
  length 0.45
  angle deg
:documentation
   .ast/.asf automatically generated from VICON data using
   VICON BodyBuilder and BodyLanguage model FoxedUp or BRILLIANT.MOD
:root
   order TX TY TZ RX RY RZ
   axis XYZ
   position 0 0 0  
   orientation 0 0 0 
:bonedata
  begin
     id 1 
     name lhipjoint
     direction 0.611804 -0.747784 0.257906 
     length 2.29243 
     axis 0 0 0  XYZ
  end
  begin
     id 2 
     name lfemur
     direction 0.34202 -0.939693 0  
     length 7.31159  
     axis 0 0 20  XYZ
    dof rx ry rz
    limits (-160.0 20.0)
           (-70.0 70.0)
           (-60.0 70.0)
  end
  begin
     id 3 
     name ltibia
     direction 0.34202 -0.939693 0   
     length 7.33391   
     axis 0 0 20   XYZ
    dof rx
    limits (-10.0 170.0)
  end
  begin
     id 4 
     name lfoot
     direction 0.122263 -0.335914 0.933924   
     length 1.76083   
     axis -90 7.62852e-016 20   XYZ
    dof rx rz
    limits (-45.0 90.0)
           (-70.0 20.0)
  end
  begin
     id 5 
     name ltoes
     direction 1.53533e-011 -4.2177e-011 1   
     length 0.879206   
     axis -90 7.62852e-016 20   XYZ
    dof rx
    limits (-90.0 20.0)
  end
  begin
     id 6 
     name rhipjoint
     direction -0.646469 -0.721248 0.248754   
     length 2.37677  
     axis 0 0 0  XYZ 
  end
  begin
     id 7 
     name rfemur
     direction -0.34202 -0.939693 0   
     length 7.18623   
     axis 0 0 -20   XYZ
    dof rx ry rz
    limits (-160.0 20.0)
           (-70.0 70.0)
           (-70.0 60.0)
  end
  begin
     id 8 
     name rtibia
     direction -0.34202 -0.939693 0   
     length 7.36567   
     axis 0 0 -20   XYZ
    dof rx
    limits (-10.0 170.0)
 end
 begin
     id 9 
     name rfoot
     direction -0.126681 -0.348054 0.928876   
     length 1.71902  
     axis -90 -7.62852e-016 -20   XYZ
    dof rx rz
    limits (-45.0 90.0)
           (-20.0 70.0)
  end
  begin
     id 10 
     name rtoes
     direction -1.53551e-011 -4.21898e-011 1   
     length 0.857792   
     axis -90 -7.62852e-016 -20   XYZ
    dof rx
    limits (-90.0 20.0)
  end
  begin
     id 11 
     name lowerback
     direction 0.0106509 0.999778 0.0181844   
     length 2.07668   
     axis 0 0 0   XYZ
    dof rx ry rz
    limits (-20.0 45.0)
           (-30.0 30.0)
           (-30.0 30.0)
  end
  begin
     id 12 
     name upperback
     direction -0.00456018 0.999989 -0.000590935   
     length 2.08011   
     axis 0 0 0   XYZ
    dof rx ry rz
    limits (-20.0 45.0)
           (-30.0 30.0)
           (-30.0 30.0)
  end
  begin
     id 13 
     name thorax
     direction -0.00910382 0.999916 -0.00923765   
     length 2.07397   
     axis 0 0 0   XYZ
    dof rx ry rz
    limits (-20.0 45.0)
           (-30.0 30.0)
           (-30.0 30.0)
  end
  begin
     id 14 
     name lowerneck
     direction 0.00171967 0.99778 0.0665733   
     length 1.67556   
     axis 0 0 0   XYZ
    dof rx ry rz
    limits (-20.0 45.0)
           (-30.0 30.0)
           (-30.0 30.0)
  end
  begin
     id 15 
     name upperneck
     direction -0.0143166 0.991302 -0.130828   
     length 1.68462   
     axis 0 0 0   XYZ
    dof rx ry rz
    limits (-20.0 45.0)
           (-30.0 30.0)
           (-30.0 30.0)
  end
  begin
     id 16
     name head
     direction -0.00606378 0.998665 -0.0512995  
     length 1.69269  
     axis 0 0 0   XYZ
    dof rx ry rz
    limits (-20.0 45.0)
           (-30.0 30.0)
           (-30.0 30.0)
  end
  begin
     id 17 
     name lclavicle
     direction 0.9638 0.179341 0.197297  
     length 4.12888  
     axis 0 0 0   XYZ
    dof ry rz
    limits (-20.0 10.0)
           (0.0 20.0)
  end
  begin
     id 18 
     name lhumerus
     direction 1 -4.48972e-011 -2.47351e-027   
     length 5.01834   
     axis -180 -30 -90   XYZ
    dof rx ry rz
    limits (-60.0 90.0)
           (-90.0 90.0)
           (-90.0 90.0)
  end
  begin
     id 19
     name lradius
     direction 1 -4.48965e-011 1.51591e-026   
     length 3.4869   
     axis -180 -30 -90   XYZ
    dof rx
    limits (-10.0 170.0)
  end
  begin
     id 20
     name lwrist
     direction 1 -4.48957e-011 2.70032e-026   
     length 1.74345   
     axis -1.81515e-014 90 90   XYZ
    dof ry
    limits (-180.0 0.0)
 end
  begin
     id 21 
     name lhand
     direction 1 -4.48951e-011 5.40064e-026   
     length 0.76799   
     axis -3.44607e-014 90 90   XYZ
    dof rx rz
    limits (-90.0 90.0)
           (-45.0 45.0)
  end
  begin
     id 22 
     name lfingers
     direction 1 -4.48971e-011 1.08013e-025   
     length 0.619174   
     axis -6.89214e-014 90 90   XYZ
    dof rx
    limits (0.0 90.0)
  end
  begin
     id 23
     name lthumb
     direction 0.707107 -6.34931e-011 0.707107   
     length 0.889013   
     axis -90 45 2.85299e-015   XYZ
    dof rx rz
    limits (-45.0 45.0)
           (-45.0 45.0)
  end
  begin
     id 24 
     name rclavicle
     direction -0.961409 0.252588 0.109054   
     length 4.04305  
     axis 0 0 0   XYZ 
    dof ry rz
    limits (-10.0 20.0)
           (-20.0 0.0)
  end
  begin
     id 25 
     name rhumerus
     direction -1 -4.4897e-011 1.33872e-017  
     length 4.70164   
     axis -180 30 90   XYZ
    dof rx ry rz
    limits (-90.0 60.0)
           (-90.0 90.0)
           (-90.0 90.0)
  end
  begin
     id 26 
     name rradius
     direction -1 -4.48954e-011 1.83844e-026   
     length 3.49911   
     axis -180 30 90   XYZ
    dof rx
    limits (-10.0 170.0)
  end
  begin
     id 27 
     name rwrist
     direction -1 -4.49008e-011 2.70032e-026   
     length 1.74955   
     axis -1.81515e-014 -90 -90   XYZ
    dof ry
    limits (-180.0 0.0)
  end
  begin
     id 28
     name rhand
     direction -1 -4.48916e-011 5.40064e-026   
     length 0.739335   
     axis -3.44607e-014 -90 -90   XYZ
    dof rx rz
    limits (-90.0 90.0)
           (-45.0 45.0)
  end
  begin
     id 29
     name rfingers
     direction -1 -4.48987e-011 1.08013e-025   
     length 0.596071   
     axis -6.89214e-014 -90 -90   XYZ
    dof rx
    limits (0.0 90.0)
  end
  begin
     id 30
     name rthumb
     direction -0.707107 -6.34935e-011 0.707107   
     length 0.855843   
     axis -90 -45 -2.85299e-015   XYZ
    dof rx rz
    limits (-45.0 45.0)
           (-45.0 45.0)
  end
:hierarchy
  begin
    root lhipjoint rhipjoint lowerback
    lhipjoint lfemur
    lfemur ltibia
    ltibia lfoot
    lfoot ltoes
    rhipjoint rfemur
    rfemur rtibia
    rtibia rfoot
    rfoot rtoes
    lowerback upperback
    upperback thorax
    thorax lowerneck lclavicle rclavicle
    lowerneck upperneck
    upperneck head
    lclavicle lhumerus
    lhumerus lradius
    lradius lwrist
    lwrist lhand lthumb
    lhand lfingers
    rclavicle rhumerus
    rhumerus rradius
    rradius rwrist
    rwrist rhand rthumb
    rhand rfingers
  end

#!OML:ASF I:\salsa\salsa 7_09\Patient 1\Session 1\dancermale.ASF
:FULLY-SPECIFIED
:DEGREES
428
root 6.74454 17.2222 3.61426 -176.551 -64.4859 188.905
lowerback -13.7762 6.1737 7.90302
upperback 0.002902 6.91299 -0.422396
thorax 8.732 3.65588 -3.37426
lowerneck -5.09944 2.81357 3.12903
upperneck 9.2038 4.25198 -8.98923
head 3.83724 1.72644 -3.04988
rclavicle -7.12022e-014 -1.37161e-014
rhumerus -50.6447 10.5643 -101.96
rradius 94.8579
rwrist -0.672122
rhand -44.7149 -2.44221
rfingers 7.12502
rthumb -17.5093 -31.6737
lclavicle -7.12022e-014 -1.37161e-014
lhumerus -30.3076 -40.9159 110.056
lradius 110.239
lwrist 57.2266
lhand -17.5183 38.0191
lfingers 7.12502
lthumb 8.7352 -292.182
rfemur -26.5373 9.22379 13.5699
rtibia 31.1079
rfoot -17.1055 -10.2926
rtoes 12.9607
lfemur -10.8939 -4.64961 -14.0207
ltibia 11.2641
lfoot -18.3815 -0.582406
ltoes -16.6119
429
root 6.62079 17.1863 3.395 -186.837 -60.1868 201.448
lowerback -16.025 8.48664 14.2003
upperback -0.0935622 8.31255 0.978388
thorax 10.8152 4.54801 -4.61431
lowerneck -4.87556 2.84988 2.92694
upperneck 9.03246 4.26861 -8.51619
head 3.73499 1.76278 -2.87266
rclavicle 4.85159e-015 -5.27773e-014
rhumerus -51.9663 10.3152 -101.736
rradius 95.2925
rwrist -0.635314
rhand -44.6711 -2.23361
rfingers 7.12502
rthumb -17.4672 -31.4689
lclavicle 4.85159e-015 -5.27773e-014
lhumerus -27.458 -41.5531 109.975
lradius 110.8
lwrist 56.5342
lhand -18.8194 38.6865
lfingers 7.12502
lthumb 7.47946 -291.466
rfemur -26.5472 14.0249 20.3671
rtibia 27.9719
rfoot -15.2059 -4.47804
rtoes 13.3428
lfemur -7.99783 -3.16375 -6.60614
ltibia 7.97276
lfoot -17.5748 2.23635
ltoes -16.389
430
root 6.55293 17.0496 3.11326 -207.126 -50.4808 227.646
lowerback -17.9024 12.863 31.2995
upperback 0.240281 8.65073 4.39078
thorax 13.1233 5.08946 -7.79704
lowerneck -4.83376 2.90332 2.85267
upperneck 8.8374 4.31003 -8.17741
head 3.66297 1.80551 -2.7548
rclavicle 4.40122e-015 -2.85256e-014
rhumerus -52.9405 10.3164 -101.544
rradius 95.5983
rwrist -0.517187
rhand -44.6089 -2.19704
rfingers 7.12502
rthumb -17.4073 -31.4376
lclavicle 4.40122e-015 -2.85256e-014
lhumerus -24.5334 -42.0664 109.46
lradius 111.39
lwrist 56.435
lhand -20.0851 39.7442
lfingers 7.12502
lthumb 6.25764 -290.368
rfemur -26.0558 18.794 41.1966
rtibia 26.7597
rfoot -14.5741 -0.0071249
rtoes 11.3712
lfemur -5.66301 5.22873 16.6036
ltibia 6.95259
lfoot -18.4707 -0.44199
ltoes -16.2879
431
root 7.21646 17.1493 2.60157 -236.662 -14.8185 329.467
lowerback -88.622 42.8221 50.9458
upperback 1.00272 -18.5684 1.54638
thorax 8.51463 -10.1494 -10.7109
lowerneck -4.86276 3.01548 2.7786
upperneck 8.37343 4.3994 -7.65565
head 3.90817 1.90126 -2.86761
rclavicle 2.17421e-015 4.94974e-014
rhumerus -53.6767 10.6374 -101.282
rradius 95.7506
rwrist -0.168043
rhand -44.7011 -2.45195
rfingers 7.12502
rthumb -17.496 -31.6846
lclavicle 2.17421e-015 4.94974e-014
lhumerus -21.6286 -42.1571 108.727
lradius 111.743
lwrist 56.7721
lhand -21.15 40.0237
lfingers 7.12502
lthumb 5.22948 -290.061
rfemur -65.7503 24.5833 112.187
rtibia 20.0953
rfoot -15.6288 4.90992
rtoes 13.5204
lfemur -74.6295 49.2269 73.4985
ltibia 28.8147
lfoot -18.8535 -24.5372
ltoes 10.1098
432
root 6.46017 17.3006 2.83661 -368.951 -56.2499 370.566
lowerback -7.69438 -14.913 -8.7584
upperback 3.78916 -18.9384 -1.62999
thorax 10.4972 -9.58105 -0.6806
lowerneck -4.78477 3.17876 2.74413
upperneck 8.26033 4.59369 -7.34317
head 3.85092 2.01515 -2.73996
rclavicle -1.85864e-014 -1.88845e-014
rhumerus -54.3837 11.0209 -101.173
rradius 95.7737
rwrist 0.500184
rhand -45.0112 -2.97066
rfingers 7.12502
rthumb -17.7945 -32.1765
lclavicle -1.85864e-014 -1.88845e-014
lhumerus -19.2817 -41.9342 107.995
lradius 111.724
lwrist 57.9742
lhand -22.4178 38.7764
lfingers 7.12502
lthumb 4.00533 -291.281
rfemur 4.0809 -15.305 6.57145
rtibia 14.8397
rfoot -21.3289 -33.2038
rtoes 16.2687
lfemur -23.4466 -33.1169 -20.2184
ltibia 31.5704
lfoot -13.8738 -40.8244
ltoes 24.4204
433
root 6.4869 17.2868 2.65168 -378.103 -55.0937 369.77
lowerback 3.48283 -14.0116 -11.8278
upperback 6.44213 -18.8402 -3.26495
thorax 7.60361 -9.92696 1.6385
lowerneck -4.63721 3.36217 3.04195
upperneck 8.10198 4.80097 -7.17563
head 3.78266 2.1427 -2.72533
rclavicle 5.29513e-014 -3.1408e-014
rhumerus -54.8653 11.2714 -101.115
rradius 95.7536
rwrist 1.03011
rhand -45.0704 -3.30731
rfingers 7.12502
rthumb -17.8514 -32.508
lclavicle 5.29513e-014 -3.1408e-014
lhumerus -17.4409 -41.7741 107.138
lradius 111.169
lwrist 59.4786
lhand -23.9654 39.6977
lfingers 7.12502
lthumb 2.51082 -290.337
rfemur 17.3385 -14.712 3.66163
rtibia 10.9699
rfoot -20.7821 -32.5151
rtoes 14.5782
lfemur -10.737 -35.4551 -27.2954
ltibia 32.0088
lfoot -15.7109 -39.1795
ltoes 22.7316
434
root 6.52169 17.2665 2.46657 -386.942 -53.9026 368.611
lowerback 14.7503 -12.5475 -14.5617
upperback 8.81464 -18.7682 -4.74293
thorax 4.53262 -10.1645 3.98722
lowerneck -4.33071 3.53613 3.31295
upperneck 8.03763 5.00367 -7.01944
head 3.71622 2.26594 -2.71284
rclavicle 1.40889e-014 3.49861e-014
rhumerus -55.3623 11.4369 -100.893
rradius 95.7392
rwrist 1.35359
rhand -44.9005 -3.21891
rfingers 7.12502
rthumb -17.6879 -32.4344
lclavicle 1.40889e-014 3.49861e-014
lhumerus -16.3 -41.5575 106.563
lradius 110.273
lwrist 60.9405
lhand -23.8472 40.1706
lfingers 7.12502
lthumb 2.62494 -289.866
rfemur 30.929 -13.7857 0.561148
rtibia 6.60664
rfoot -19.4045 -31.484
rtoes 13.1709
lfemur 2.57312 -36.8322 -35.5155
ltibia 32.9433
lfoot -17.741 -36.7761
ltoes 21.0078
435
root 6.54302 17.2521 2.25925 -391.567 -51.8275 366.833
lowerback 22.4109 -11.6799 -16.6515
upperback 9.9963 -19.3608 -5.46571
thorax 2.54011 -10.568 5.94791
lowerneck -4.05985 3.70337 3.33873
upperneck 8.09064 5.21044 -6.7495
head 3.68401 2.38383 -2.61631
rclavicle -1.32937e-014 -3.61788e-014
rhumerus -55.8961 11.5944 -100.502
rradius 95.6889
rwrist 1.60308
rhand -44.7386 -2.96356
rfingers 7.12502
rthumb -17.5321 -32.193
lclavicle -1.32937e-014 -3.61788e-014
lhumerus -15.8865 -41.1352 106.435
lradius 109.418
lwrist 62.7541
lhand -23.7493 41.4093
lfingers 7.12502
lthumb 2.71947 -288.628
rfemur 40.1051 -12.6004 0.373171
rtibia 2.26244
rfoot -19.1514 -32.729
rtoes 13.7501
lfemur 10.4178 -38.1986 -40.8802
ltibia 35.0664
lfoot -18.4259 -35.3456
ltoes 22.8323
436
root 6.56544 17.242 2.05862 -402.575 -49.5815 364.799
lowerback 37.3832 -8.41875 -20.2656
upperback 11.8178 -19.6332 -5.92388
thorax -0.683573 -10.8306 9.0746
lowerneck -3.88193 3.85824 3.31461
upperneck 7.92122 5.40245 -6.57184
head 3.59277 2.49179 -2.54154
rclavicle 4.28132e-014 -3.69739e-014
rhumerus -56.0927 11.9028 -99.8902
rradius 95.5648
rwrist 1.69015
rhand -44.6619 -2.98519
rfingers 7.12502
rthumb -17.4583 -32.2212
lclavicle 4.28132e-014 -3.69739e-014
lhumerus -15.891 -40.7084 106.584
lradius 108.231
lwrist 64.1356
lhand -23.8127 42.2628
lfingers 7.12502
lthumb 2.65822 -287.774
rfemur 56.7064 -9.68215 -1.97625
rtibia -2.61806
rfoot -18.3242 -33.0621
rtoes 11.8638
lfemur 27.5601 -35.6636 -52.5895
ltibia 36.7897
lfoot -18.7914 -32.5258
ltoes 24.719
